#tb 0: 1/22050
#media_type 0: audio
#codec_id 0: pcm_s16le
#sample_rate 0: 22050
#channel_layout_name 0: stereo
0,          0,          0,     1472,     5888, 0x9086e310
0,       1472,       1472,     1472,     5888, 0xac8491f5
0,       2944,       2944,     1472,     5888, 0xc9a08b6b
0,       4416,       4416,     1472,     5888, 0x4cff893b
0,       5888,       5888,     1464,     5856, 0xfb914624
0,       7352,       7352,     1472,     5888, 0x1dd9781f
0,       8824,       8824,     1472,     5888, 0x75937688
0,      10296,      10296,     1472,     5888, 0x6c93a266
0,      11768,      11768,     1464,     5856, 0xb14e6783
0,      13232,      13232,     1472,     5888, 0x4d268759
0,      14704,      14704,     1472,     5888, 0xce44b8c6
0,      16176,      16176,     1472,     5888, 0xf99f7347
0,      17648,      17648,     1464,     5856, 0x35591adc
0,      19112,      19112,     1472,     5888, 0x67692338
0,      20584,      20584,     1472,     5888, 0x6465addd
0,      22056,      22056,     1472,     5888, 0x22c66aaf
0,      23528,      23528,     1464,     5856, 0x016b78d9
0,      24992,      24992,     1472,     5888, 0xa9a03855
0,      26464,      26464,     1472,     5888, 0x1aa0603f
0,      27936,      27936,     1472,     5888, 0x190a25a1
0,      29408,      29408,     1464,     5856, 0xc6ad8bc0
0,      30872,      30872,     1472,     5888, 0x42bb9d6b
0,      32344,      32344,     1472,     5888, 0x797694d7
0,      33816,      33816,     1472,     5888, 0xd2d1fa69
0,      35288,      35288,     1464,     5856, 0x61624e9b
0,      36752,      36752,     1472,     5888, 0x14bf8ec0
